<mxfile host="app.diagrams.net" agent="Mozilla/5.0 (Macintosh; Intel Mac OS X 10_15_7) AppleWebKit/537.36 (KHTML, like Gecko) Chrome/130.0.0.0 Safari/537.36" version="24.9.1">
  <diagram id="6a731a19-8d31-9384-78a2-239565b7b9f0" name="Page-1">
    <mxGraphModel dx="1224" dy="704" grid="1" gridSize="10" guides="1" tooltips="1" connect="1" arrows="1" fold="1" page="1" pageScale="1" pageWidth="1169" pageHeight="827" background="none" math="0" shadow="0">
      <root>
        <mxCell id="0" />
        <mxCell id="1" parent="0" />
        <mxCell id="xAftQ-V8ujB6SN10Z2Ji-1817" value="" style="group" vertex="1" connectable="0" parent="1">
          <mxGeometry x="137" y="350" width="935" height="430" as="geometry" />
        </mxCell>
        <mxCell id="xAftQ-V8ujB6SN10Z2Ji-1800" value="" style="rounded=0;whiteSpace=wrap;html=1;fillColor=#e1d5e7;strokeColor=#9673a6;opacity=50;" vertex="1" parent="xAftQ-V8ujB6SN10Z2Ji-1817">
          <mxGeometry width="935" height="430" as="geometry" />
        </mxCell>
        <mxCell id="xAftQ-V8ujB6SN10Z2Ji-1845" value="" style="rounded=0;whiteSpace=wrap;html=1;opacity=20;fillColor=#30C1FF;" vertex="1" parent="xAftQ-V8ujB6SN10Z2Ji-1817">
          <mxGeometry x="25.55" y="295" width="884" height="100" as="geometry" />
        </mxCell>
        <mxCell id="xAftQ-V8ujB6SN10Z2Ji-1843" value="" style="rounded=0;whiteSpace=wrap;html=1;opacity=20;fillColor=#30C1FF;" vertex="1" parent="xAftQ-V8ujB6SN10Z2Ji-1817">
          <mxGeometry x="25.55" y="35" width="884" height="90" as="geometry" />
        </mxCell>
        <mxCell id="xAftQ-V8ujB6SN10Z2Ji-1842" value="" style="rounded=0;whiteSpace=wrap;html=1;opacity=20;fillColor=#30C1FF;" vertex="1" parent="xAftQ-V8ujB6SN10Z2Ji-1817">
          <mxGeometry x="25.55" y="162.5" width="884" height="90" as="geometry" />
        </mxCell>
        <mxCell id="xAftQ-V8ujB6SN10Z2Ji-1807" value="" style="group" vertex="1" connectable="0" parent="xAftQ-V8ujB6SN10Z2Ji-1817">
          <mxGeometry x="25.546448087431695" y="10" width="189.04371584699453" height="40" as="geometry" />
        </mxCell>
        <mxCell id="xAftQ-V8ujB6SN10Z2Ji-1791" value="" style="shape=mxgraph.gcp2.google_cloud_platform;fillColor=#F6F6F6;strokeColor=none;shadow=0;gradientColor=none;" vertex="1" parent="xAftQ-V8ujB6SN10Z2Ji-1807">
          <mxGeometry x="-20.437158469945356" width="23.502732240437158" height="20" as="geometry">
            <mxPoint x="20" y="10" as="offset" />
          </mxGeometry>
        </mxCell>
        <mxCell id="xAftQ-V8ujB6SN10Z2Ji-1792" value="&lt;font style=&quot;font-size: 13px;&quot;&gt;&lt;b style=&quot;forced-color-adjust: none; color: rgb(113, 113, 113); font-family: Helvetica; font-style: normal; font-variant-ligatures: normal; font-variant-caps: normal; letter-spacing: normal; orphans: 2; text-align: left; text-indent: 0px; text-transform: none; widows: 2; word-spacing: 0px; -webkit-text-stroke-width: 0px; white-space: nowrap; background-color: rgb(251, 251, 251); text-decoration-thickness: initial; text-decoration-style: initial; text-decoration-color: initial;&quot;&gt;Google&amp;nbsp;&lt;/b&gt;&lt;span style=&quot;color: rgb(113, 113, 113); font-family: Helvetica; font-style: normal; font-variant-ligatures: normal; font-variant-caps: normal; font-weight: 400; letter-spacing: normal; orphans: 2; text-align: left; text-indent: 0px; text-transform: none; widows: 2; word-spacing: 0px; -webkit-text-stroke-width: 0px; white-space: nowrap; background-color: rgb(251, 251, 251); text-decoration-thickness: initial; text-decoration-style: initial; text-decoration-color: initial; float: none; display: inline !important;&quot;&gt;Cloud Platform&lt;/span&gt;&lt;/font&gt;" style="text;whiteSpace=wrap;html=1;" vertex="1" parent="xAftQ-V8ujB6SN10Z2Ji-1807">
          <mxGeometry x="5.109289617486339" width="183.9344262295082" height="40" as="geometry" />
        </mxCell>
        <mxCell id="xAftQ-V8ujB6SN10Z2Ji-1795" value="Financial Events" style="rounded=1;whiteSpace=wrap;html=1;shadow=0;labelBackgroundColor=none;strokeColor=none;strokeWidth=3;fillColor=#1699d3;fontFamily=Helvetica;fontSize=14;fontColor=#FFFFFF;align=center;spacing=5;fontStyle=1;arcSize=7;perimeterSpacing=2;" vertex="1" parent="xAftQ-V8ujB6SN10Z2Ji-1817">
          <mxGeometry x="252.9966120218579" y="50" width="91.9672131147541" height="60" as="geometry" />
        </mxCell>
        <mxCell id="xAftQ-V8ujB6SN10Z2Ji-1798" value="Lease Events" style="rounded=1;whiteSpace=wrap;html=1;shadow=0;labelBackgroundColor=none;strokeColor=none;strokeWidth=3;fillColor=#e85642;fontFamily=Helvetica;fontSize=14;fontColor=#FFFFFF;align=center;spacing=5;fontStyle=1;arcSize=7;perimeterSpacing=2;" vertex="1" parent="xAftQ-V8ujB6SN10Z2Ji-1817">
          <mxGeometry x="405.6774316939891" y="50" width="81.74863387978142" height="60" as="geometry" />
        </mxCell>
        <mxCell id="xAftQ-V8ujB6SN10Z2Ji-1808" value="Property_Financials" style="rounded=1;whiteSpace=wrap;html=1;shadow=0;labelBackgroundColor=none;strokeColor=#d79b00;strokeWidth=3;fillColor=#ffe6cc;fontFamily=Helvetica;fontSize=16;align=center;fontStyle=1;spacing=5;arcSize=7;perimeterSpacing=2;" vertex="1" parent="xAftQ-V8ujB6SN10Z2Ji-1817">
          <mxGeometry x="137.95081967213116" y="185" width="168.60655737704917" height="45" as="geometry" />
        </mxCell>
        <mxCell id="xAftQ-V8ujB6SN10Z2Ji-1811" value="" style="edgeStyle=orthogonalEdgeStyle;rounded=0;jumpStyle=none;html=1;shadow=0;labelBackgroundColor=none;startArrow=classic;startFill=1;endArrow=none;endFill=0;jettySize=auto;orthogonalLoop=1;strokeColor=#2F5B7C;strokeWidth=3;fontFamily=Helvetica;fontSize=16;fontColor=#23445D;spacing=5;entryX=0.5;entryY=1;entryDx=0;entryDy=0;exitX=0.75;exitY=0;exitDx=0;exitDy=0;" edge="1" parent="xAftQ-V8ujB6SN10Z2Ji-1817" source="xAftQ-V8ujB6SN10Z2Ji-1808" target="xAftQ-V8ujB6SN10Z2Ji-1795">
          <mxGeometry relative="1" as="geometry">
            <mxPoint x="387.2841530054645" y="208" as="sourcePoint" />
            <mxPoint x="286.120218579235" y="117" as="targetPoint" />
          </mxGeometry>
        </mxCell>
        <mxCell id="xAftQ-V8ujB6SN10Z2Ji-1794" value="Tenant Details" style="rounded=1;whiteSpace=wrap;html=1;shadow=0;labelBackgroundColor=none;strokeColor=none;strokeWidth=3;fillColor=#44B02F;fontFamily=Helvetica;fontSize=14;fontColor=#FFFFFF;align=center;spacing=5;fontStyle=1;arcSize=7;perimeterSpacing=2;" vertex="1" parent="xAftQ-V8ujB6SN10Z2Ji-1817">
          <mxGeometry x="567.1311475409836" y="50" width="81.74863387978142" height="60" as="geometry" />
        </mxCell>
        <mxCell id="xAftQ-V8ujB6SN10Z2Ji-1799" value="Maintenance Events" style="rounded=1;whiteSpace=wrap;html=1;shadow=0;labelBackgroundColor=none;strokeColor=none;strokeWidth=3;fillColor=#44B02F;fontFamily=Helvetica;fontSize=14;fontColor=#FFFFFF;align=center;spacing=5;fontStyle=1;arcSize=7;perimeterSpacing=2;" vertex="1" parent="xAftQ-V8ujB6SN10Z2Ji-1817">
          <mxGeometry x="740.8469945355191" y="50" width="97.07650273224044" height="60" as="geometry" />
        </mxCell>
        <mxCell id="xAftQ-V8ujB6SN10Z2Ji-1796" value="Property Details" style="rounded=1;whiteSpace=wrap;html=1;shadow=0;labelBackgroundColor=none;strokeColor=none;strokeWidth=3;fillColor=#F08705;fontFamily=Helvetica;fontSize=14;fontColor=#FFFFFF;align=center;spacing=5;fontStyle=1;arcSize=7;perimeterSpacing=2;" vertex="1" parent="xAftQ-V8ujB6SN10Z2Ji-1817">
          <mxGeometry x="94.63934426229508" y="50" width="112.40437158469946" height="60" as="geometry" />
        </mxCell>
        <mxCell id="xAftQ-V8ujB6SN10Z2Ji-1809" value="" style="edgeStyle=orthogonalEdgeStyle;rounded=0;jumpStyle=none;html=1;shadow=0;labelBackgroundColor=none;startArrow=classic;startFill=1;endArrow=none;endFill=0;jettySize=auto;orthogonalLoop=1;strokeColor=#2F5B7C;strokeWidth=3;fontFamily=Helvetica;fontSize=16;fontColor=#23445D;spacing=5;exitX=0.25;exitY=0;exitDx=0;exitDy=0;entryX=0.5;entryY=1;entryDx=0;entryDy=0;" edge="1" parent="xAftQ-V8ujB6SN10Z2Ji-1817" source="xAftQ-V8ujB6SN10Z2Ji-1808" target="xAftQ-V8ujB6SN10Z2Ji-1796">
          <mxGeometry relative="1" as="geometry">
            <mxPoint x="470.0546448087432" y="10" as="sourcePoint" />
            <mxPoint x="470.0546448087432" y="-125" as="targetPoint" />
          </mxGeometry>
        </mxCell>
        <mxCell id="1749" value="Property Management Data" style="rounded=1;whiteSpace=wrap;html=1;shadow=0;labelBackgroundColor=none;strokeColor=none;strokeWidth=3;fillColor=#2F5B7C;fontFamily=Helvetica;fontSize=16;fontColor=#FFFFFF;align=center;fontStyle=1;spacing=5;arcSize=7;perimeterSpacing=2;" parent="xAftQ-V8ujB6SN10Z2Ji-1817" vertex="1">
          <mxGeometry x="413.3415300546448" y="310" width="153.27868852459017" height="70" as="geometry" />
        </mxCell>
        <mxCell id="xAftQ-V8ujB6SN10Z2Ji-1823" value="Tenancy_Lease" style="rounded=1;whiteSpace=wrap;html=1;shadow=0;labelBackgroundColor=none;strokeColor=#b85450;strokeWidth=3;fillColor=#f8cecc;fontFamily=Helvetica;fontSize=16;align=center;fontStyle=1;spacing=5;arcSize=7;perimeterSpacing=2;" vertex="1" parent="xAftQ-V8ujB6SN10Z2Ji-1817">
          <mxGeometry x="405.6775956284153" y="185" width="168.60655737704917" height="45" as="geometry" />
        </mxCell>
        <mxCell id="xAftQ-V8ujB6SN10Z2Ji-1826" value="" style="edgeStyle=orthogonalEdgeStyle;rounded=0;jumpStyle=none;html=1;shadow=0;labelBackgroundColor=none;startArrow=classic;startFill=1;endArrow=none;endFill=0;jettySize=auto;orthogonalLoop=1;strokeColor=#2F5B7C;strokeWidth=3;fontFamily=Helvetica;fontSize=16;fontColor=#23445D;spacing=5;exitX=0.25;exitY=0;exitDx=0;exitDy=0;entryX=0.5;entryY=1;entryDx=0;entryDy=0;" edge="1" parent="xAftQ-V8ujB6SN10Z2Ji-1817" source="xAftQ-V8ujB6SN10Z2Ji-1823" target="xAftQ-V8ujB6SN10Z2Ji-1798">
          <mxGeometry relative="1" as="geometry">
            <mxPoint x="209.4808743169399" y="193" as="sourcePoint" />
            <mxPoint x="143.0601092896175" y="122" as="targetPoint" />
          </mxGeometry>
        </mxCell>
        <mxCell id="xAftQ-V8ujB6SN10Z2Ji-1827" value="" style="edgeStyle=orthogonalEdgeStyle;rounded=0;jumpStyle=none;html=1;shadow=0;labelBackgroundColor=none;startArrow=classic;startFill=1;endArrow=none;endFill=0;jettySize=auto;orthogonalLoop=1;strokeColor=#2F5B7C;strokeWidth=3;fontFamily=Helvetica;fontSize=16;fontColor=#23445D;spacing=5;entryX=0.5;entryY=1;entryDx=0;entryDy=0;exitX=0.75;exitY=0;exitDx=0;exitDy=0;" edge="1" parent="xAftQ-V8ujB6SN10Z2Ji-1817" source="xAftQ-V8ujB6SN10Z2Ji-1823" target="xAftQ-V8ujB6SN10Z2Ji-1794">
          <mxGeometry relative="1" as="geometry">
            <mxPoint x="296.3387978142077" y="193" as="sourcePoint" />
            <mxPoint x="316.77595628415304" y="122" as="targetPoint" />
          </mxGeometry>
        </mxCell>
        <mxCell id="xAftQ-V8ujB6SN10Z2Ji-1828" value="Maintenances" style="rounded=1;whiteSpace=wrap;html=1;shadow=0;labelBackgroundColor=none;strokeColor=#82b366;strokeWidth=3;fillColor=#d5e8d4;fontFamily=Helvetica;fontSize=16;align=center;fontStyle=1;spacing=5;arcSize=7;perimeterSpacing=2;" vertex="1" parent="xAftQ-V8ujB6SN10Z2Ji-1817">
          <mxGeometry x="660.120218579235" y="185" width="168.60655737704917" height="45" as="geometry" />
        </mxCell>
        <mxCell id="xAftQ-V8ujB6SN10Z2Ji-1831" value="" style="edgeStyle=orthogonalEdgeStyle;rounded=0;jumpStyle=none;html=1;shadow=0;labelBackgroundColor=none;startArrow=classic;startFill=1;endArrow=none;endFill=0;jettySize=auto;orthogonalLoop=1;strokeColor=#2F5B7C;strokeWidth=3;fontFamily=Helvetica;fontSize=16;fontColor=#23445D;spacing=5;entryX=0.75;entryY=1;entryDx=0;entryDy=0;exitX=0.5;exitY=0;exitDx=0;exitDy=0;" edge="1" parent="xAftQ-V8ujB6SN10Z2Ji-1817" source="xAftQ-V8ujB6SN10Z2Ji-1828" target="xAftQ-V8ujB6SN10Z2Ji-1794">
          <mxGeometry relative="1" as="geometry">
            <mxPoint x="543.6284153005464" y="193" as="sourcePoint" />
            <mxPoint x="618.224043715847" y="122" as="targetPoint" />
            <Array as="points">
              <mxPoint x="743.9125683060109" y="130" />
              <mxPoint x="629.4644808743169" y="130" />
            </Array>
          </mxGeometry>
        </mxCell>
        <mxCell id="xAftQ-V8ujB6SN10Z2Ji-1835" value="" style="edgeStyle=orthogonalEdgeStyle;rounded=0;jumpStyle=none;html=1;shadow=0;labelBackgroundColor=none;startArrow=classic;startFill=1;endArrow=none;endFill=0;jettySize=auto;orthogonalLoop=1;strokeColor=#2F5B7C;strokeWidth=3;fontFamily=Helvetica;fontSize=16;fontColor=#23445D;spacing=5;entryX=0.5;entryY=1;entryDx=0;entryDy=0;exitX=0.75;exitY=0;exitDx=0;exitDy=0;" edge="1" parent="xAftQ-V8ujB6SN10Z2Ji-1817" source="xAftQ-V8ujB6SN10Z2Ji-1828" target="xAftQ-V8ujB6SN10Z2Ji-1799">
          <mxGeometry relative="1" as="geometry">
            <mxPoint x="916.6065573770492" y="193" as="sourcePoint" />
            <mxPoint x="802.1584699453553" y="122" as="targetPoint" />
            <Array as="points">
              <mxPoint x="786.8306010928962" y="112" />
            </Array>
          </mxGeometry>
        </mxCell>
        <mxCell id="xAftQ-V8ujB6SN10Z2Ji-1836" value="" style="edgeStyle=orthogonalEdgeStyle;rounded=0;jumpStyle=arc;html=1;shadow=0;labelBackgroundColor=none;startArrow=classic;startFill=1;endArrow=none;endFill=0;jettySize=auto;orthogonalLoop=1;strokeColor=#2F5B7C;strokeWidth=3;fontFamily=Helvetica;fontSize=16;fontColor=#23445D;spacing=5;exitX=0.25;exitY=0;exitDx=0;exitDy=0;entryX=0.75;entryY=1;entryDx=0;entryDy=0;" edge="1" parent="xAftQ-V8ujB6SN10Z2Ji-1817" source="xAftQ-V8ujB6SN10Z2Ji-1828" target="xAftQ-V8ujB6SN10Z2Ji-1796">
          <mxGeometry relative="1" as="geometry">
            <mxPoint x="189.04371584699453" y="193" as="sourcePoint" />
            <mxPoint x="143.0601092896175" y="122" as="targetPoint" />
            <Array as="points">
              <mxPoint x="701" y="140" />
              <mxPoint x="180" y="140" />
            </Array>
          </mxGeometry>
        </mxCell>
        <mxCell id="xAftQ-V8ujB6SN10Z2Ji-1838" value="" style="rounded=0;jumpStyle=none;html=1;shadow=0;labelBackgroundColor=none;startArrow=classic;startFill=1;endArrow=none;endFill=0;jettySize=auto;orthogonalLoop=1;strokeColor=#2F5B7C;strokeWidth=3;fontFamily=Helvetica;fontSize=16;fontColor=#23445D;spacing=5;exitX=0.5;exitY=0;exitDx=0;exitDy=0;entryX=0.5;entryY=1;entryDx=0;entryDy=0;" edge="1" parent="xAftQ-V8ujB6SN10Z2Ji-1817" source="1749" target="xAftQ-V8ujB6SN10Z2Ji-1808">
          <mxGeometry relative="1" as="geometry">
            <mxPoint x="286.120218579235" y="321" as="sourcePoint" />
            <mxPoint x="240.13661202185793" y="250" as="targetPoint" />
          </mxGeometry>
        </mxCell>
        <mxCell id="xAftQ-V8ujB6SN10Z2Ji-1839" value="" style="rounded=0;jumpStyle=none;html=1;shadow=0;labelBackgroundColor=none;startArrow=classic;startFill=1;endArrow=none;endFill=0;jettySize=auto;orthogonalLoop=1;strokeColor=#2F5B7C;strokeWidth=3;fontFamily=Helvetica;fontSize=16;fontColor=#23445D;spacing=5;exitX=0.5;exitY=0;exitDx=0;exitDy=0;entryX=0.5;entryY=1;entryDx=0;entryDy=0;" edge="1" parent="xAftQ-V8ujB6SN10Z2Ji-1817" source="1749" target="xAftQ-V8ujB6SN10Z2Ji-1823">
          <mxGeometry relative="1" as="geometry">
            <mxPoint x="763.327868852459" y="308" as="sourcePoint" />
            <mxPoint x="546.6939890710382" y="242" as="targetPoint" />
          </mxGeometry>
        </mxCell>
        <mxCell id="xAftQ-V8ujB6SN10Z2Ji-1840" value="" style="rounded=0;jumpStyle=none;html=1;shadow=0;labelBackgroundColor=none;startArrow=classic;startFill=1;endArrow=none;endFill=0;jettySize=auto;orthogonalLoop=1;strokeColor=#2F5B7C;strokeWidth=3;fontFamily=Helvetica;fontSize=16;fontColor=#23445D;spacing=5;exitX=0.5;exitY=0;exitDx=0;exitDy=0;entryX=0.5;entryY=1;entryDx=0;entryDy=0;" edge="1" parent="xAftQ-V8ujB6SN10Z2Ji-1817" source="1749" target="xAftQ-V8ujB6SN10Z2Ji-1828">
          <mxGeometry relative="1" as="geometry">
            <mxPoint x="449.61748633879785" y="308" as="sourcePoint" />
            <mxPoint x="500.7103825136612" y="242" as="targetPoint" />
          </mxGeometry>
        </mxCell>
        <mxCell id="xAftQ-V8ujB6SN10Z2Ji-1841" value="&lt;b&gt;Enrichments&lt;br&gt;Aggregations&lt;br&gt;Transformations&lt;/b&gt;" style="text;html=1;align=left;verticalAlign=middle;whiteSpace=wrap;rounded=0;" vertex="1" parent="xAftQ-V8ujB6SN10Z2Ji-1817">
          <mxGeometry x="34" y="192.5" width="60" height="30" as="geometry" />
        </mxCell>
        <mxCell id="xAftQ-V8ujB6SN10Z2Ji-1844" value="&lt;b&gt;Staging Layer&lt;/b&gt;" style="text;html=1;align=left;verticalAlign=middle;whiteSpace=wrap;rounded=0;" vertex="1" parent="xAftQ-V8ujB6SN10Z2Ji-1817">
          <mxGeometry x="36" y="65" width="60" height="30" as="geometry" />
        </mxCell>
        <mxCell id="xAftQ-V8ujB6SN10Z2Ji-1846" value="&lt;b&gt;Mart Layer&lt;/b&gt;" style="text;html=1;align=left;verticalAlign=middle;whiteSpace=wrap;rounded=0;" vertex="1" parent="xAftQ-V8ujB6SN10Z2Ji-1817">
          <mxGeometry x="36" y="330" width="60" height="30" as="geometry" />
        </mxCell>
        <mxCell id="xAftQ-V8ujB6SN10Z2Ji-1802" value="" style="group" vertex="1" connectable="0" parent="1">
          <mxGeometry x="135" y="85" width="940" height="130" as="geometry" />
        </mxCell>
        <mxCell id="xAftQ-V8ujB6SN10Z2Ji-1789" value="" style="rounded=0;whiteSpace=wrap;html=1;fillColor=#e1d5e7;strokeColor=#9673a6;opacity=50;" vertex="1" parent="xAftQ-V8ujB6SN10Z2Ji-1802">
          <mxGeometry width="940" height="130" as="geometry" />
        </mxCell>
        <mxCell id="xAftQ-V8ujB6SN10Z2Ji-1801" value="On-Premise" style="sketch=0;outlineConnect=0;gradientColor=none;html=1;whiteSpace=wrap;fontSize=12;fontStyle=0;shape=mxgraph.aws4.group;grIcon=mxgraph.aws4.group_on_premise;strokeColor=#858B94;fillColor=none;verticalAlign=top;align=left;spacingLeft=30;fontColor=#858B94;dashed=0;" vertex="1" parent="xAftQ-V8ujB6SN10Z2Ji-1802">
          <mxGeometry width="130" height="25" as="geometry" />
        </mxCell>
        <mxCell id="1764" value="Property Details" style="rounded=1;whiteSpace=wrap;html=1;shadow=0;labelBackgroundColor=none;strokeColor=none;strokeWidth=3;fillColor=#F08705;fontFamily=Helvetica;fontSize=14;fontColor=#FFFFFF;align=center;spacing=5;fontStyle=1;arcSize=7;perimeterSpacing=2;" parent="xAftQ-V8ujB6SN10Z2Ji-1802" vertex="1">
          <mxGeometry x="75" y="35" width="110" height="60" as="geometry" />
        </mxCell>
        <mxCell id="1760" value="Financial Events" style="rounded=1;whiteSpace=wrap;html=1;shadow=0;labelBackgroundColor=none;strokeColor=none;strokeWidth=3;fillColor=#1699d3;fontFamily=Helvetica;fontSize=14;fontColor=#FFFFFF;align=center;spacing=5;fontStyle=1;arcSize=7;perimeterSpacing=2;" parent="xAftQ-V8ujB6SN10Z2Ji-1802" vertex="1">
          <mxGeometry x="285" y="35" width="90" height="60" as="geometry" />
        </mxCell>
        <mxCell id="xAftQ-V8ujB6SN10Z2Ji-1783" value="Lease Events" style="rounded=1;whiteSpace=wrap;html=1;shadow=0;labelBackgroundColor=none;strokeColor=none;strokeWidth=3;fillColor=#e85642;fontFamily=Helvetica;fontSize=14;fontColor=#FFFFFF;align=center;spacing=5;fontStyle=1;arcSize=7;perimeterSpacing=2;" vertex="1" parent="xAftQ-V8ujB6SN10Z2Ji-1802">
          <mxGeometry x="450" y="35" width="80" height="60" as="geometry" />
        </mxCell>
        <mxCell id="1753" value="Tenant Details" style="rounded=1;whiteSpace=wrap;html=1;shadow=0;labelBackgroundColor=none;strokeColor=none;strokeWidth=3;fillColor=#44B02F;fontFamily=Helvetica;fontSize=14;fontColor=#FFFFFF;align=center;spacing=5;fontStyle=1;arcSize=7;perimeterSpacing=2;" parent="xAftQ-V8ujB6SN10Z2Ji-1802" vertex="1">
          <mxGeometry x="615" y="35" width="80" height="60" as="geometry" />
        </mxCell>
        <mxCell id="1748" value="" style="edgeStyle=none;rounded=0;jumpStyle=none;html=1;shadow=0;labelBackgroundColor=none;startArrow=classic;startFill=1;endArrow=none;endFill=0;jettySize=auto;orthogonalLoop=1;strokeColor=#2F5B7C;strokeWidth=3;fontFamily=Helvetica;fontSize=16;fontColor=#23445D;spacing=5;exitX=0.5;exitY=0;exitDx=0;exitDy=0;entryX=0.5;entryY=1;entryDx=0;entryDy=0;" parent="1" source="xAftQ-V8ujB6SN10Z2Ji-1800" target="xAftQ-V8ujB6SN10Z2Ji-1789" edge="1">
          <mxGeometry relative="1" as="geometry">
            <mxPoint x="1110" y="340" as="sourcePoint" />
            <mxPoint x="650" y="230" as="targetPoint" />
          </mxGeometry>
        </mxCell>
        <mxCell id="xAftQ-V8ujB6SN10Z2Ji-1788" value="Maintenance Events" style="rounded=1;whiteSpace=wrap;html=1;shadow=0;labelBackgroundColor=none;strokeColor=none;strokeWidth=3;fillColor=#44B02F;fontFamily=Helvetica;fontSize=14;fontColor=#FFFFFF;align=center;spacing=5;fontStyle=1;arcSize=7;perimeterSpacing=2;" vertex="1" parent="1">
          <mxGeometry x="905" y="120" width="95" height="60" as="geometry" />
        </mxCell>
        <mxCell id="xAftQ-V8ujB6SN10Z2Ji-1790" value="" style="endArrow=none;dashed=1;html=1;rounded=0;strokeWidth=2;" edge="1" parent="1">
          <mxGeometry width="50" height="50" relative="1" as="geometry">
            <mxPoint x="80" y="280" as="sourcePoint" />
            <mxPoint x="1080" y="280" as="targetPoint" />
          </mxGeometry>
        </mxCell>
        <mxCell id="xAftQ-V8ujB6SN10Z2Ji-1804" value="API" style="text;html=1;align=center;verticalAlign=middle;whiteSpace=wrap;rounded=0;" vertex="1" parent="1">
          <mxGeometry x="588" y="290" width="60" height="30" as="geometry" />
        </mxCell>
      </root>
    </mxGraphModel>
  </diagram>
</mxfile>
